<?xml version="1.0" encoding="utf-8"?>
<!-- Generator: Adobe Illustrator 24.1.0, SVG Export Plug-In . SVG Version: 6.00 Build 0)  -->
<svg version="1.1" id="Capa_1" xmlns="http://www.w3.org/2000/svg" xmlns:xlink="http://www.w3.org/1999/xlink" x="0px" y="0px"
	 viewBox="0 0 960 376" style="enable-background:new 0 0 960 376;" xml:space="preserve">
<style type="text/css">
	.st0{fill-rule:evenodd;clip-rule:evenodd;}
</style>
<path class="st0" d="M651.1,231.6c7.1-26.2,26.5-40,52.6-40c30,0,40.5,18.1,43.1,40H651.1L651.1,231.6z M937.7,330
	c-10.7,0-19.3,8.7-19.3,19.4c0,10.6,8.6,19.3,19.3,19.3c10.6,0,19.3-8.8,19.3-19.3C957,338.7,948.4,330,937.7,330L937.7,330z
	 M937.7,332.9c9,0,16.4,7.5,16.4,16.4c0,9.2-7.7,16.4-16.4,16.4c-9,0-16.4-7.2-16.4-16.4C921.4,340.4,928.7,332.9,937.7,332.9
	L937.7,332.9z M930.7,339.1h8.7c3.2,0,5.9,2.8,5.9,5.9c0,2.5-1.7,4.7-4.1,5.4l5,8.7h-3l-4.8-8.3h-4.9v8.3h-2.7V339.1L930.7,339.1z
	 M933.4,341.8h5.3c1.9,0,3.9,0.9,3.9,3.3c0,1.6-1.5,3.1-3.2,3.1h-6V341.8L933.4,341.8z M29,64.5c5.3-0.1,10.9-1.7,14.4-3.6l-2.1-4.3
	c0,0-5.5,2.7-12.2,2.7C18.3,59.3,10,50.9,10,39.9c0-11,8.3-19.4,19.2-19.4c6.6,0,12.2,2.7,12.2,2.7l2.1-4.3
	c-3.5-1.9-9.1-3.6-14.4-3.6c-14,0-25,11.1-25,24.6C4,53.4,15.1,64.5,29,64.5L29,64.5z M64,15.2L45.7,63.8h6.1l4.7-13.1h21l4.7,13.1
	h6.1L70,15.2H64L64,15.2z M67,21.2l9,24.9H58L67,21.2L67,21.2z M94.1,15.9v47.9h21.3c7.5,0,13.8-5.1,13.8-12.9
	c0-6.6-4.6-10.4-9.3-11.8c3.1-1.2,6.8-4.7,6.8-10.3c0-7.7-6.3-12.9-13.8-12.9H94.1L94.1,15.9z M99.8,58.5V42.1H115
	c5.3,0,8.4,3.8,8.4,7.9c0,4.7-3.9,8.4-7.9,8.4H99.8L99.8,58.5z M99.8,21.3H113c4.4,0,7.9,3.1,7.9,8.1c0,4.4-2.7,7.8-7.3,7.8H99.8
	V21.3L99.8,21.3z M150.6,15.2l-18.3,48.6h6.1l4.7-13.1h21l4.7,13.1h6.1l-18.3-48.6H150.6L150.6,15.2z M153.7,21.2l9,24.9h-18.1
	L153.7,21.2L153.7,21.2z M180.7,15.9v47.9h5.7V40.2l-0.3-15.7h0.1l10.2,15.7l15.3,23.5h6V15.9h-5.7v19.8l0.3,19.2h-0.1l-10.4-16.1
	l-15.1-22.8H180.7L180.7,15.9z M191.3,12.3c0.8-1,1.9-2.2,3.8-2.2c3.4,0,5.5,2.7,8.4,2.7c2.8,0,5.3-2,6.8-4.7l-1.8-1.3
	c-0.7,1-1.9,2.2-3.8,2.2c-3.1,0-5.3-2.7-8.3-2.7c-2.9-0.1-5.4,2.1-6.9,4.6L191.3,12.3L191.3,12.3z M241.9,15.2l-18.3,48.6h6.1
	l4.7-13.1h21l4.7,13.1h6.1l-18.3-48.6H241.9L241.9,15.2z M244.9,21.2l9,24.9h-18.1L244.9,21.2L244.9,21.2z M302.5,15.2l-18.3,48.6
	h6.1l4.7-13.1h21l4.7,13.1h6.1l-18.3-48.6H302.5L302.5,15.2z M305.5,21.2l9,24.9h-18.1L305.5,21.2L305.5,21.2z M324.4,15.9h6
	l14.4,40.6h0.1l14.4-40.6h6l-17.6,47.9h-5.6L324.4,15.9L324.4,15.9z M371.1,15.9v47.9h5.7V15.9H371.1L371.1,15.9z M377.2,1.6
	l-4.5,11.2h3.2l6.1-8.6L377.2,1.6L377.2,1.6z M410.3,64.5c5.3-0.1,10.9-1.7,14.4-3.6l-2.1-4.3c0,0-5.5,2.7-12.2,2.7
	c-10.9,0-19.2-8.4-19.2-19.4c0-11,8.3-19.4,19.2-19.4c6.6,0,12.2,2.7,12.2,2.7l2.1-4.3c-3.5-1.9-9.1-3.6-14.4-3.6
	c-14,0-25,11.1-25,24.6C385.3,53.4,396.4,64.5,410.3,64.5L410.3,64.5z M427.7,39.8c0,13.8,11,24.7,24.6,24.7
	c13.2,0,24.5-10.7,24.5-24.7c0-13.5-10.8-24.6-24.5-24.6C439.1,15.2,427.7,25.8,427.7,39.8L427.7,39.8z M433.7,39.9
	c0-11,7.9-19.4,18.4-19.4c10.7,0,18.6,8.6,18.6,19.4c0,11-7.9,19.4-18.5,19.4C441.7,59.3,433.7,50.9,433.7,39.9L433.7,39.9z
	 M485.2,15.9v47.9H517v-5.3h-26V15.9H485.2L485.2,15.9z M536.1,15.2l-18.3,48.6h6.1l4.7-13.1h21l4.7,13.1h6.1l-18.3-48.6H536.1
	L536.1,15.2z M539.1,21.2l9,24.9h-18.1L539.1,21.2L539.1,21.2z M227.8,231.6c7.1-26.2,26.5-40,52.6-40c30,0,40.5,18.1,43.1,40H227.8
	L227.8,231.6z M165.5,258.5c0,68.7,49.7,114.4,117.5,114.4c30.2,0,62.2-6.5,84.6-19.4l-19.9-43.6c-14.7,6.5-38,13.4-63.5,13.4
	c-26.8,0-54.4-12.1-57-44H378c0,0,2.2-10.8,2.2-25.9c0-59.6-33.7-113.6-103.2-113.6C210.4,139.7,165.5,189.4,165.5,258.5
	L165.5,258.5z M397.8,88.2v234.7c0,26.3,14.7,45.8,44.5,45.8c18.1,0,39.6-2,43.2-2.2v-52.2c-9.1,0.9-14.7,1.3-20.7,1.3
	c-4.7,0-7.8-2.2-7.8-7.8V88.2H397.8L397.8,88.2z M820.8,146.2h47.5l7.8,35.4c13.8-28.5,37.1-37.6,76.9-37.6v61.3c-2.6,0-4.8,0-7.3,0
	c-38,0-65.2,14.7-65.2,63.1v100.2h-59.6V146.2L820.8,146.2z M501.1,88.2v234.7c0,26.3,14.7,45.8,44.5,45.8c18.1,0,39.6-2,43.2-2.2
	v-52.2c-9.1,0.9-14.7,1.3-20.7,1.3c-4.8,0-7.8-2.2-7.8-7.8V88.2H501.1L501.1,88.2z M4.6,88.2h156.7l25.3,56.1H65.1V225h87.4
	c-2.3,10.7-3.5,21.9-3.5,33.6c0,8.3,0.7,16.2,1.9,23.9H63.8l1.3,86.2H4.6V88.2L4.6,88.2z M588.8,258.5
	c0,68.7,49.7,114.4,117.5,114.4c30.2,0,62.2-6.5,84.6-19.4l-19.9-43.6c-14.7,6.5-38,13.4-63.5,13.4c-26.8,0-54.4-12.1-57-44h150.7
	c0,0,2.2-10.8,2.2-25.9c0-59.6-33.7-113.6-103.2-113.6C633.7,139.7,588.8,189.4,588.8,258.5z"/>
</svg>
