<?xml version="1.0" encoding="utf-8"?>
<!-- Generator: Adobe Illustrator 24.1.0, SVG Export Plug-In . SVG Version: 6.00 Build 0)  -->
<svg version="1.1" id="Capa_1" xmlns="http://www.w3.org/2000/svg" xmlns:xlink="http://www.w3.org/1999/xlink" x="0px" y="0px"
	 viewBox="0 0 243 210" style="enable-background:new 0 0 243 210;" xml:space="preserve">
<style type="text/css">
	.st0{fill:#FFC827;stroke:#FFF73F;stroke-miterlimit:10;}
	.st1{fill:#ED1C24;stroke:#FFE44A;stroke-miterlimit:10;}
	.st2{fill:#ED1F24;stroke:#FFE44A;stroke-miterlimit:10;}
	.st3{fill:#EE2223;stroke:#FFE44A;stroke-miterlimit:10;}
	.st4{fill:#EE2523;stroke:#FFE44A;stroke-miterlimit:10;}
	.st5{fill:#EE2823;stroke:#FFE44A;stroke-miterlimit:10;}
	.st6{fill:#EE2B23;stroke:#FFE44A;stroke-miterlimit:10;}
	.st7{fill:#EF2E22;stroke:#FFE44A;stroke-miterlimit:10;}
	.st8{fill:#EF3122;stroke:#FFE44A;stroke-miterlimit:10;}
	.st9{fill:#EF3422;stroke:#FFE44A;stroke-miterlimit:10;}
	.st10{fill:#F03722;stroke:#FFE44A;stroke-miterlimit:10;}
	.st11{fill:#F03A21;stroke:#FFE44A;stroke-miterlimit:10;}
	.st12{fill:#F03C21;stroke:#FFE44A;stroke-miterlimit:10;}
	.st13{fill:#F03F21;stroke:#FFE44A;stroke-miterlimit:10;}
	.st14{fill:#F14221;stroke:#FFE44A;stroke-miterlimit:10;}
	.st15{fill:#F14520;stroke:#FFE44A;stroke-miterlimit:10;}
	.st16{fill:#F14820;stroke:#FFE44A;stroke-miterlimit:10;}
	.st17{fill:#F24B20;stroke:#FFE44A;stroke-miterlimit:10;}
	.st18{fill:#F24E20;stroke:#FFE44A;stroke-miterlimit:10;}
	.st19{fill:#F2511F;stroke:#FFE44A;stroke-miterlimit:10;}
	.st20{fill:#F2541F;stroke:#FFE44A;stroke-miterlimit:10;}
	.st21{fill:#F3571F;stroke:#FFE44A;stroke-miterlimit:10;}
	.st22{fill:#F35A1F;stroke:#FFE44A;stroke-miterlimit:10;}
	.st23{fill:#F35D1E;stroke:#FFE44A;stroke-miterlimit:10;}
	.st24{fill:#F4601E;stroke:#FFE44A;stroke-miterlimit:10;}
	.st25{fill:#F4631E;stroke:#FFE44A;stroke-miterlimit:10;}
	.st26{fill:#F4661E;stroke:#FFE44A;stroke-miterlimit:10;}
	.st27{fill:#F4691D;stroke:#FFE44A;stroke-miterlimit:10;}
	.st28{fill:#F56C1D;stroke:#FFE44A;stroke-miterlimit:10;}
	.st29{fill:#F56F1D;stroke:#FFE44A;stroke-miterlimit:10;}
	.st30{fill:#F5721D;stroke:#FFE44A;stroke-miterlimit:10;}
	.st31{fill:#F6751C;stroke:#FFE44A;stroke-miterlimit:10;}
	.st32{fill:#F6781C;stroke:#FFE44A;stroke-miterlimit:10;}
	.st33{fill:#F67A1C;stroke:#FFE44A;stroke-miterlimit:10;}
	.st34{fill:#F67D1C;stroke:#FFE44A;stroke-miterlimit:10;}
	.st35{fill:#F7801B;stroke:#FFE44A;stroke-miterlimit:10;}
	.st36{fill:#F7831B;stroke:#FFE44A;stroke-miterlimit:10;}
	.st37{fill:#F7861B;stroke:#FFE44A;stroke-miterlimit:10;}
	.st38{fill:#F8891B;stroke:#FFE44A;stroke-miterlimit:10;}
	.st39{fill:#F88C1A;stroke:#FFE44A;stroke-miterlimit:10;}
	.st40{fill:#F88F1A;stroke:#FFE44A;stroke-miterlimit:10;}
	.st41{fill:#F8921A;stroke:#FFE44A;stroke-miterlimit:10;}
	.st42{fill:#F9951A;stroke:#FFE44A;stroke-miterlimit:10;}
	.st43{fill:#F99819;stroke:#FFE44A;stroke-miterlimit:10;}
	.st44{fill:#F99B19;stroke:#FFE44A;stroke-miterlimit:10;}
	.st45{fill:#FA9E19;stroke:#FFE44A;stroke-miterlimit:10;}
	.st46{fill:#FAA119;stroke:#FFE44A;stroke-miterlimit:10;}
	.st47{fill:#FAA418;stroke:#FFE44A;stroke-miterlimit:10;}
	.st48{fill:#FAA718;stroke:#FFE44A;stroke-miterlimit:10;}
	.st49{fill:#FBAA18;stroke:#FFE44A;stroke-miterlimit:10;}
	.st50{fill:#FBAD18;stroke:#FFE44A;stroke-miterlimit:10;}
	.st51{fill:#FBB017;stroke:#FFE44A;stroke-miterlimit:10;}
	.st52{fill:#FCB317;stroke:#FFE44A;stroke-miterlimit:10;}
	.st53{fill:#FCB617;stroke:#FFE44A;stroke-miterlimit:10;}
	.st54{fill:#FCB817;stroke:#FFE44A;stroke-miterlimit:10;}
	.st55{fill:#FCBB16;stroke:#FFE44A;stroke-miterlimit:10;}
	.st56{fill:#FDBE16;stroke:#FFE44A;stroke-miterlimit:10;}
	.st57{fill:#FDC116;stroke:#FFE44A;stroke-miterlimit:10;}
	.st58{fill:#FDC416;stroke:#FFE44A;stroke-miterlimit:10;}
	.st59{fill:#FEC715;stroke:#FFE44A;stroke-miterlimit:10;}
	.st60{fill:#FECA15;stroke:#FFE44A;stroke-miterlimit:10;}
	.st61{fill:#FECD15;stroke:#FFE44A;stroke-miterlimit:10;}
	.st62{fill:#FED015;stroke:#FFE44A;stroke-miterlimit:10;}
	.st63{fill:#FFD314;stroke:#FFE44A;stroke-miterlimit:10;}
	.st64{fill:#FFD614;stroke:#FFE44A;stroke-miterlimit:10;}
</style>
<g>
	<path class="st0" d="M180,182.8c-28.5,19-65.2,30.5-96.6,11.5c-32.5-14.5-62.1-41.5-60.8-79.8c-3.1-33.9,8.4-69.7,40.2-86.3
		c28.5-19,65.2-30.5,96.6-11.5c32.5,14.5,62.1,41.5,60.8,79.8C223.3,130.4,211.8,166.2,180,182.8z"/>
	<g>
		<path class="st1" d="M206.9,124.8c-5.9,25.3-21.1,42.2-40.1,51.7s-41.9,11.6-63.3,7.3c-42.7-8.7-79.1-43.2-65.9-95.9
			c5.9-25.3,21.1-42.2,40.1-51.7s41.9-11.6,63.3-7.3C183.6,37.6,220,72.1,206.9,124.8z"/>
		<path class="st2" d="M77.7,36.9c19-9.6,41.7-11.7,62.8-7.5c25.8,5.2,49.4,20.1,61,42.7c4.7,9.2,7.4,19.7,7.3,31.5
			c0,6.6-0.9,13.5-2.7,20.8c-5.8,25.1-20.7,42-39.6,51.4c-19,9.6-41.7,11.7-62.8,7.5c-25.8-5.2-49.4-20.1-61-42.7
			c-4.7-9.2-7.4-19.7-7.3-31.5c0-6.6,0.9-13.5,2.7-20.8C44.1,63.3,58.8,46.3,77.7,36.9z"/>
		<path class="st3" d="M77.8,37.6c19.1-9.6,41.5-11.9,62.4-7.7c25.6,5.1,48.9,19.8,60.7,42.3c4.7,9.1,7.4,19.5,7.4,31.2
			c0,6.5-0.9,13.4-2.6,20.6c-5.6,24.9-20.2,41.8-39,51.1c-19,9.6-41.5,11.9-62.4,7.7c-25.6-5.1-48.9-19.8-60.7-42.3
			c-4.7-9.1-7.4-19.5-7.4-31.2c0-6.5,0.9-13.4,2.6-20.6C44.6,63.9,59.1,47,77.8,37.6z"/>
		<path class="st4" d="M77.9,38.3c19.1-9.6,41.2-12,62-7.9c25.3,5,48.5,19.5,60.3,41.8c4.8,9,7.4,19.3,7.4,30.9
			c0,6.4-0.8,13.3-2.5,20.5c-5.5,24.7-19.8,41.6-38.4,50.9c-19,9.7-41.2,12-62,7.9c-25.3-5-48.5-19.5-60.3-41.8
			c-4.8-9-7.4-19.3-7.4-30.9c0-6.4,0.9-13.3,2.5-20.5C45.1,64.6,59.3,47.7,77.9,38.3z"/>
		<path class="st5" d="M77.9,39.1c19.1-9.7,41-12.1,61.5-8.1c25,4.9,48,19.2,60,41.3c4.8,8.8,7.5,19.1,7.5,30.6
			c0,6.4-0.8,13.2-2.5,20.3c-5.4,24.5-19.4,41.3-37.9,50.6c-19,9.7-41,12.1-61.5,8.1c-25-4.9-48-19.2-60-41.3
			c-4.8-8.8-7.5-19.1-7.5-30.6c0-6.4,0.9-13.2,2.5-20.3C45.6,65.2,59.5,48.4,77.9,39.1z"/>
		<path class="st6" d="M78,39.8c19.1-9.7,40.8-12.2,61.1-8.3c24.7,4.8,47.5,18.9,59.6,40.8c4.8,8.7,7.6,18.9,7.5,30.3
			c0,6.3-0.8,13.1-2.4,20.2c-5.3,24.3-19,41.1-37.3,50.3c-19,9.8-40.8,12.2-61.1,8.3c-24.7-4.8-47.5-18.9-59.6-40.8
			c-4.8-8.7-7.6-18.9-7.5-30.3c0-6.3,0.8-13.1,2.4-20.2C46.1,65.8,59.7,49.1,78,39.8z"/>
		<path class="st7" d="M78,40.5c19.1-9.7,40.5-12.4,60.7-8.5c24.5,4.7,47.1,18.7,59.3,40.3c4.9,8.6,7.6,18.7,7.6,30
			c0,6.3-0.8,13-2.3,20c-5.1,24.1-18.6,40.9-36.8,50c-19,9.9-40.5,12.4-60.7,8.5c-24.5-4.7-47-18.7-59.3-40.3
			c-4.9-8.6-7.6-18.7-7.6-30c0-6.3,0.8-13,2.3-20C46.5,66.5,59.9,49.7,78,40.5z"/>
		<path class="st8" d="M78.1,41.2c19.1-9.8,40.3-12.5,60.3-8.7c24.2,4.6,46.6,18.4,58.9,39.8c4.9,8.5,7.7,18.5,7.6,29.7
			c0,6.2-0.7,12.9-2.3,19.9c-5,23.9-18.2,40.7-36.2,49.7c-19,9.9-40.3,12.5-60.3,8.7C82,175.7,59.6,162,47.2,140.5
			c-4.9-8.5-7.7-18.5-7.6-29.7c0-6.2,0.8-12.8,2.3-19.9C47,67.1,60.1,50.4,78.1,41.2z"/>
		<path class="st9" d="M78.2,42c19.1-9.8,40.1-12.6,59.8-8.9c23.9,4.5,46.1,18.1,58.6,39.4c4.9,8.4,7.7,18.3,7.7,29.4
			c0,6.1-0.7,12.7-2.2,19.7c-4.9,23.7-17.7,40.5-35.7,49.4c-19,10-40.1,12.6-59.8,8.9c-23.9-4.6-46.1-18.1-58.6-39.4
			c-4.9-8.4-7.7-18.3-7.7-29.4c0-6.1,0.7-12.7,2.2-19.7C47.5,67.8,60.3,51.1,78.2,42z"/>
		<path class="st10" d="M78.2,42.7c19.1-9.8,39.8-12.7,59.4-9.1c23.7,4.5,45.6,17.8,58.2,38.9c4.9,8.3,7.8,18.1,7.7,29.1
			c0,6.1-0.7,12.6-2.2,19.6c-4.8,23.5-17.3,40.3-35.1,49.1c-19,10-39.8,12.7-59.4,9.1c-23.7-4.5-45.6-17.8-58.2-38.9
			c-4.9-8.3-7.8-18.1-7.8-29.1c0-6.1,0.7-12.6,2.2-19.6C48,68.4,60.6,51.8,78.2,42.7z"/>
		<path class="st11" d="M78.3,43.4c19.1-9.9,39.6-12.9,59-9.3c23.4,4.4,45.2,17.6,57.9,38.4c5,8.1,7.8,17.9,7.8,28.8
			c0,6-0.7,12.5-2.1,19.4c-4.6,23.3-16.9,40-34.5,48.9c-19,10.1-39.6,12.9-59,9.3c-23.4-4.4-45.2-17.6-57.9-38.4
			c-5-8.1-7.8-17.9-7.8-28.8c0-6,0.7-12.5,2.1-19.4C48.5,69,60.8,52.5,78.3,43.4z"/>
		<path class="st12" d="M78.3,44.1c19.1-9.9,39.4-13,58.5-9.5c23.1,4.3,44.7,17.3,57.5,37.9c5,8,7.9,17.7,7.9,28.5
			c0,6-0.6,12.4-2,19.3c-4.5,23.1-16.5,39.8-34,48.6c-19,10.2-39.4,13-58.5,9.5c-23.1-4.3-44.7-17.3-57.5-37.9
			c-5-8-7.9-17.7-7.9-28.5c0-6,0.7-12.4,2-19.3C48.9,69.7,61,53.1,78.3,44.1z"/>
		<path class="st13" d="M78.4,44.9c19.1-9.9,39.1-13.2,58.1-9.7c22.8,4.1,44.2,17,57.2,37.4c5,7.9,7.9,17.5,7.9,28.2
			c0,5.9-0.6,12.3-2,19.1c-4.4,22.9-16.1,39.6-33.4,48.3c-19,10.2-39.1,13.2-58.1,9.7c-22.8-4.1-44.2-17-57.2-37.4
			c-5-7.9-7.9-17.5-7.9-28.2c0-5.9,0.6-12.3,2-19.1C49.4,70.3,61.2,53.8,78.4,44.9z"/>
		<path class="st14" d="M78.5,45.6c19.2-10,38.9-13.3,57.7-10c22.6,4,43.7,16.7,56.8,37c5.1,7.8,7.9,17.3,8,27.9
			c0,5.8-0.6,12.2-1.9,19c-4.2,22.7-15.7,39.4-32.9,48c-19,10.3-38.9,13.3-57.7,10c-22.6-4-43.7-16.7-56.8-37
			c-5.1-7.8-7.9-17.3-8-27.9c0-5.8,0.6-12.2,1.9-19C49.9,71,61.4,54.5,78.5,45.6z"/>
		<path class="st15" d="M78.5,46.3c19.2-10,38.7-13.4,57.2-10.2c22.3,3.9,43.2,16.4,56.5,36.5c5.1,7.7,8,17.1,8,27.6
			c0,5.8-0.6,12.1-1.8,18.8c-4.1,22.4-15.2,39.2-32.3,47.7c-19,10.3-38.7,13.4-57.2,10.2c-22.3-3.9-43.2-16.4-56.5-36.5
			c-5.1-7.7-8-17.1-8-27.6c0-5.8,0.6-12.1,1.8-18.8C50.4,71.6,61.6,55.2,78.5,46.3z"/>
		<path class="st16" d="M78.6,47.1c19.2-10,38.4-13.5,56.8-10.4c22,3.8,42.8,16.2,56.1,36c5.1,7.6,8,16.9,8.1,27.3
			c0,5.7-0.6,12-1.8,18.6c-4,22.2-14.8,39-31.8,47.4c-19,10.4-38.4,13.5-56.8,10.4c-22-3.8-42.8-16.2-56.1-36
			c-5.1-7.6-8-16.9-8.1-27.3c0-5.7,0.6-12,1.8-18.7C50.8,72.2,61.8,55.8,78.6,47.1z"/>
		<path class="st17" d="M78.7,47.8c19.2-10.1,38.2-13.7,56.4-10.6c21.8,3.7,42.3,15.9,55.8,35.5c5.1,7.4,8.1,16.7,8.1,27
			c0,5.7-0.5,11.9-1.7,18.5c-3.9,22-14.4,38.7-31.2,47.2c-19,10.5-38.2,13.7-56.4,10.6c-21.8-3.7-42.3-15.9-55.8-35.5
			c-5.1-7.4-8.1-16.7-8.1-27c0-5.7,0.5-11.9,1.7-18.5C51.3,72.9,62,56.5,78.7,47.8z"/>
		<path class="st18" d="M78.7,48.5c19.2-10.1,38-13.8,56-10.8c21.5,3.6,41.8,15.6,55.5,35c5.2,7.3,8.1,16.5,8.2,26.7
			c0,5.6-0.5,11.8-1.6,18.3c-3.7,21.8-14,38.5-30.6,46.9c-19,10.5-38,13.8-56,10.8c-21.5-3.6-41.8-15.6-55.5-35
			c-5.2-7.3-8.1-16.5-8.2-26.7c0-5.6,0.5-11.8,1.6-18.3C51.8,73.5,62.2,57.2,78.7,48.5z"/>
		<path class="st19" d="M78.8,49.2c19.2-10.1,37.7-13.9,55.5-11c21.2,3.5,41.3,15.3,55.1,34.6c5.2,7.2,8.2,16.3,8.2,26.4
			c0,5.6-0.5,11.7-1.6,18.2c-3.6,21.6-13.6,38.3-30.1,46.6c-19,10.6-37.7,13.9-55.5,11c-21.2-3.5-41.3-15.3-55.1-34.6
			c-5.2-7.2-8.2-16.3-8.2-26.4c0-5.6,0.5-11.7,1.6-18.2C52.3,74.2,62.4,57.9,78.8,49.2z"/>
		<path class="st20" d="M78.8,50c19.2-10.2,37.5-14.1,55.1-11.2c20.9,3.4,40.8,15.1,54.8,34.1C193.9,80,196.9,89,197,99
			c0,5.5-0.5,11.6-1.5,18c-3.5,21.4-13.2,38.1-29.5,46.3c-19,10.6-37.5,14.1-55.1,11.2c-20.9-3.4-40.8-15.1-54.8-34.1
			c-5.2-7.1-8.2-16.1-8.3-26.1c0-5.5,0.5-11.6,1.5-18C52.8,74.8,62.7,58.5,78.8,50z"/>
		<path class="st21" d="M78.9,50.7c19.2-10.2,37.3-14.2,54.7-11.4c20.7,3.3,40.3,14.8,54.4,33.6c5.2,7,8.3,15.9,8.3,25.8
			c0,5.4-0.4,11.5-1.5,17.9c-3.3,21.2-12.7,37.9-29,46c-19,10.7-37.3,14.2-54.7,11.4c-20.7-3.3-40.3-14.8-54.4-33.6
			c-5.2-7-8.3-15.9-8.3-25.8c0-5.4,0.4-11.5,1.5-17.9C53.3,75.5,62.9,59.2,78.9,50.7z"/>
		<path class="st22" d="M79,51.4c19.2-10.3,37-14.3,54.2-11.6c20.4,3.2,39.9,14.5,54.1,33.1c5.2,6.9,8.3,15.7,8.4,25.6
			c0,5.4-0.4,11.4-1.4,17.7c-3.2,21-12.3,37.7-28.4,45.7c-19,10.7-37,14.3-54.2,11.6c-20.4-3.2-39.9-14.5-54.1-33.1
			c-5.2-6.9-8.3-15.7-8.4-25.6c0-5.4,0.4-11.4,1.4-17.7C53.8,76.1,63.1,59.9,79,51.4z"/>
		<path class="st23" d="M79,52.1c19.2-10.3,36.8-14.4,53.8-11.8c20.1,3.1,39.4,14.2,53.7,32.6c5.3,6.8,8.4,15.5,8.4,25.3
			c0,5.3-0.4,11.3-1.3,17.6c-3.1,20.8-11.9,37.5-27.9,45.4c-19,10.8-36.8,14.4-53.8,11.8c-20.1-3.1-39.4-14.2-53.7-32.6
			c-5.3-6.8-8.4-15.5-8.4-25.3c0-5.3,0.4-11.3,1.3-17.6C54.3,76.8,63.3,60.6,79,52.1z"/>
		<path class="st24" d="M79.1,52.9c19.3-10.3,36.6-14.6,53.4-12c19.9,3,38.9,14,53.4,32.2c5.3,6.6,8.4,15.3,8.5,25
			c0,5.3-0.4,11.2-1.3,17.4c-3,20.6-11.5,37.2-27.3,45.2c-19,10.9-36.6,14.6-53.4,12c-19.9-3-38.9-14-53.4-32.2
			c-5.3-6.6-8.4-15.3-8.5-25c0-5.3,0.4-11.2,1.3-17.4C54.7,77.4,63.5,61.2,79.1,52.9z"/>
		<path class="st25" d="M79.1,53.6c19.3-10.4,36.3-14.7,52.9-12.2c19.6,2.9,38.4,13.7,53,31.7c5.3,6.5,8.5,15.1,8.5,24.7
			c0,5.2-0.4,11-1.2,17.3c-2.8,20.4-11.1,37-26.7,44.9c-19,10.9-36.3,14.7-52.9,12.2c-19.6-2.9-38.4-13.7-53-31.7
			c-5.3-6.5-8.5-15.1-8.5-24.7c0-5.2,0.4-11,1.2-17.3C55.2,78,63.7,61.9,79.1,53.6z"/>
		<path class="st26" d="M79.2,54.3c19.3-10.4,36.1-14.8,52.5-12.4c19.3,2.8,37.9,13.4,52.7,31.2c5.3,6.4,8.5,14.9,8.6,24.4
			c0,5.1-0.3,10.9-1.1,17.1c-2.7,20.2-10.7,36.8-26.2,44.6c-18.9,11-36.1,14.8-52.5,12.4c-19.3-2.8-37.9-13.4-52.7-31.2
			c-5.3-6.4-8.5-14.9-8.6-24.4c0-5.1,0.3-10.9,1.1-17.1C55.7,78.7,63.9,62.6,79.2,54.3z"/>
		<path class="st27" d="M79.3,55.1c19.3-10.4,35.9-15,52.1-12.6c19,2.7,37.4,13.2,52.3,30.7c5.3,6.3,8.6,14.7,8.6,24.1
			c0,5.1-0.3,10.8-1.1,17c-2.6,20-10.2,36.6-25.6,44.3c-18.9,11-35.9,15-52.1,12.6c-19-2.7-37.4-13.2-52.3-30.7
			c-5.3-6.3-8.6-14.7-8.6-24.1c0-5.1,0.3-10.8,1.1-17C56.2,79.3,64.1,63.2,79.3,55.1z"/>
		<path class="st28" d="M79.3,55.8C98.6,45.3,115,40.7,131,42.9c18.8,2.6,36.9,12.9,52,30.2c5.4,6.2,8.6,14.5,8.7,23.8
			c0,5-0.3,10.7-1,16.8c-2.5,19.8-9.8,36.4-25.1,44c-18.9,11.1-35.6,15.1-51.7,12.8c-18.8-2.6-36.9-12.9-52-30.2
			c-5.4-6.2-8.6-14.5-8.7-23.8c0-5,0.3-10.7,1-16.8C56.7,80,64.3,63.9,79.3,55.8z"/>
		<path class="st29" d="M79.4,56.5c19.3-10.5,35.4-15.2,51.2-13.1c18.5,2.5,36.4,12.6,51.6,29.8c5.4,6.1,8.7,14.3,8.8,23.5
			c0,5-0.3,10.6-0.9,16.7c-2.3,19.6-9.4,36.2-24.5,43.7c-18.9,11.2-35.4,15.2-51.2,13c-18.5-2.5-36.4-12.6-51.6-29.8
			c-5.4-6.1-8.7-14.3-8.8-23.5c0-5,0.2-10.6,0.9-16.7C57.1,80.6,64.5,64.6,79.4,56.5z"/>
		<path class="st30" d="M79.4,57.2c19.3-10.5,35.2-15.3,50.8-13.3c18.2,2.4,35.9,12.3,51.3,29.3c5.4,6,8.7,14.1,8.8,23.2
			c0,4.9-0.2,10.5-0.9,16.5c-2.2,19.4-9,35.9-24,43.4c-18.9,11.2-35.2,15.3-50.8,13.3c-18.2-2.4-35.9-12.3-51.3-29.3
			c-5.4-6-8.7-14.1-8.8-23.2c0-4.9,0.2-10.5,0.9-16.5C57.6,81.3,64.7,65.3,79.4,57.2z"/>
		<path class="st31" d="M79.5,58c19.3-10.6,34.9-15.5,50.4-13.5c18,2.3,35.4,12.1,50.9,28.8c5.4,5.8,8.8,13.9,8.9,22.9
			c0,4.8-0.2,10.4-0.8,16.4c-2.1,19.2-8.6,35.7-23.4,43.2c-18.9,11.3-34.9,15.5-50.4,13.5c-18-2.3-35.4-12.1-50.9-28.8
			c-5.4-5.8-8.8-13.9-8.9-22.9c0-4.8,0.2-10.4,0.8-16.4C58.1,81.9,64.9,65.9,79.5,58z"/>
		<path class="st32" d="M79.6,58.7c19.3-10.6,34.7-15.6,49.9-13.7c17.7,2.2,34.9,11.8,50.6,28.3c5.4,5.7,8.8,13.7,8.9,22.6
			c0.1,4.8-0.2,10.3-0.7,16.2c-1.9,19-8.1,35.5-22.8,42.9c-18.9,11.3-34.7,15.6-49.9,13.7c-17.7-2.2-34.9-11.8-50.6-28.3
			c-5.4-5.7-8.8-13.7-8.9-22.6c-0.1-4.8,0.2-10.3,0.7-16.2C58.6,82.5,65.2,66.6,79.6,58.7z"/>
		<path class="st33" d="M79.6,59.4c19.3-10.7,34.5-15.7,49.5-13.9c17.4,2.1,34.4,11.5,50.2,27.8c5.5,5.6,8.9,13.5,9,22.3
			c0.1,4.7-0.2,10.2-0.7,16.1c-1.8,18.8-7.7,35.3-22.3,42.6c-18.9,11.4-34.5,15.7-49.5,13.9c-17.4-2.1-34.4-11.5-50.2-27.8
			c-5.5-5.6-8.9-13.5-9-22.3c-0.1-4.7,0.1-10.2,0.7-16.1C59.1,83.2,65.4,67.3,79.6,59.4z"/>
		<path class="st34" d="M79.7,60.1c19.4-10.7,34.2-15.8,49.1-14.1c17.1,2,33.9,11.3,49.9,27.4c5.5,5.5,8.9,13.3,9,22
			c0.1,4.7-0.1,10.1-0.6,15.9c-1.7,18.6-7.3,35.1-21.7,42.3c-18.9,11.4-34.2,15.8-49.1,14.1c-17.1-2-33.9-11.3-49.9-27.4
			c-5.5-5.5-8.9-13.3-9-22c-0.1-4.7,0.1-10.1,0.6-15.9C59.6,83.8,65.6,67.9,79.7,60.1z"/>
		<path class="st35" d="M79.7,60.9c19.4-10.7,34-16,48.6-14.3c16.9,1.9,33.4,11,49.5,26.9c5.5,5.4,9,13.1,9.1,21.7
			c0.1,4.6-0.1,10-0.6,15.8c-1.6,18.4-6.9,34.9-21.2,42c-18.9,11.5-34,16-48.6,14.3c-16.9-1.9-33.4-11-49.5-26.9
			c-5.5-5.4-9-13.1-9.1-21.7c-0.1-4.6,0.1-10,0.6-15.8C60,84.5,65.8,68.6,79.7,60.9z"/>
		<path class="st36" d="M79.8,61.6c19.4-10.8,33.8-16.1,48.2-14.5c16.6,1.8,32.9,10.7,49.2,26.4c5.5,5.3,9,12.9,9.1,21.4
			c0.1,4.6-0.1,9.9-0.5,15.6c-1.4,18.2-6.5,34.6-20.6,41.7c-18.9,11.6-33.8,16.1-48.2,14.5c-16.6-1.8-32.9-10.7-49.2-26.4
			c-5.5-5.3-9-12.9-9.1-21.4c-0.1-4.6,0.1-9.9,0.5-15.6C60.5,85.1,66,69.3,79.8,61.6z"/>
		<path class="st37" d="M79.9,62.3c19.4-10.8,33.5-16.2,47.8-14.7c16.3,1.7,32.4,10.5,48.8,25.9c5.5,5.2,9.1,12.7,9.2,21.1
			c0.1,4.5-0.1,9.8-0.4,15.5c-1.3,18-6.1,34.4-20,41.5c-18.9,11.6-33.5,16.2-47.8,14.7c-16.3-1.7-32.4-10.5-48.8-25.9
			c-5.5-5.2-9.1-12.7-9.2-21.1c-0.1-4.5,0-9.8,0.4-15.5C61,85.8,66.2,69.9,79.9,62.3z"/>
		<path class="st38" d="M79.9,63c19.4-10.8,33.3-16.3,47.4-14.9c16,1.6,31.9,10.2,48.5,25.4c5.5,5.1,9.1,12.5,9.2,20.8
			c0.1,4.4-0.1,9.7-0.4,15.3c-1.2,17.8-5.6,34.2-19.5,41.2c-18.9,11.7-33.3,16.3-47.4,14.9c-16-1.6-31.9-10.2-48.5-25.4
			c-5.5-5.1-9.1-12.5-9.2-20.8c-0.1-4.4,0-9.7,0.4-15.3C61.5,86.4,66.4,70.6,79.9,63z"/>
		<path class="st39" d="M80,63.8c19.4-10.9,33.1-16.5,46.9-15.1c15.8,1.5,31.4,10,48.1,25c5.5,5,9.2,12.3,9.3,20.5
			c0.1,4.4,0,9.6-0.3,15.1c-1.1,17.6-5.2,34-18.9,40.9c-18.9,11.7-33.1,16.5-46.9,15.1c-15.8-1.5-31.4-10-48.1-25
			c-5.5-5-9.2-12.3-9.3-20.5c-0.1-4.4,0-9.6,0.3-15.2C62,87.1,66.6,71.3,80,63.8z"/>
		<path class="st40" d="M80,64.5c19.4-10.9,32.8-16.6,46.5-15.3c15.5,1.4,30.8,9.7,47.8,24.5c5.6,4.8,9.2,12.1,9.3,20.2
			c0.1,4.3,0,9.5-0.2,15c-0.9,17.4-4.8,33.8-18.4,40.6c-18.9,11.8-32.8,16.6-46.5,15.3c-15.5-1.4-30.8-9.7-47.8-24.5
			c-5.6-4.8-9.2-12.1-9.3-20.2c-0.1-4.3,0-9.5,0.2-15C62.5,87.7,66.8,71.9,80,64.5z"/>
		<path class="st41" d="M80.1,65.2c19.4-10.9,32.6-16.7,46.1-15.5c15.2,1.3,30.3,9.5,47.4,24c5.6,4.7,9.2,11.9,9.4,19.9
			c0.1,4.3,0,9.3-0.2,14.8c-0.8,17.2-4.4,33.6-17.8,40.3c-18.9,11.9-32.6,16.7-46.1,15.5c-15.2-1.3-30.3-9.5-47.4-24
			c-5.6-4.7-9.2-11.9-9.4-19.9c-0.1-4.3,0-9.3,0.2-14.8C63,88.3,67,72.6,80.1,65.2z"/>
		<path class="st42" d="M80.2,66c19.5-11,32.4-16.9,45.6-15.7c15,1.3,29.8,9.2,47.1,23.5c5.6,4.6,9.3,11.7,9.4,19.6
			c0.1,4.2,0,9.2-0.1,14.7c-0.7,17-4,33.3-17.3,40c-18.9,11.9-32.4,16.8-45.6,15.7c-15-1.3-29.8-9.2-47.1-23.5
			c-5.6-4.6-9.3-11.7-9.4-19.6c-0.1-4.2-0.1-9.2,0.1-14.7C63.5,89,67.2,73.3,80.2,66z"/>
		<path class="st43" d="M80.2,66.7c19.5-11,32.1-17,45.2-15.9c14.7,1.2,29.3,8.9,46.8,23c5.6,4.5,9.3,11.5,9.5,19.4
			c0.1,4.1,0.1,9.1,0,14.5c-0.5,16.8-3.6,33.1-16.7,39.7c-18.9,12-32.1,17-45.2,15.9c-14.7-1.2-29.3-8.9-46.8-23
			c-5.6-4.5-9.3-11.5-9.5-19.4c-0.1-4.1-0.1-9.1,0-14.5C63.9,89.6,67.4,73.9,80.2,66.7z"/>
		<path class="st44" d="M80.3,67.4c19.5-11.1,31.9-17.1,44.8-16.2c14.4,1.1,28.8,8.7,46.4,22.6c5.6,4.4,9.4,11.3,9.5,19.1
			c0.1,4.1,0.1,9,0,14.4c-0.4,16.6-3.1,32.9-16.1,39.5c-18.9,12-31.9,17.1-44.8,16.1c-14.4-1.1-28.8-8.7-46.4-22.5
			c-5.6-4.4-9.4-11.3-9.5-19.1c-0.1-4.1-0.1-9,0-14.4C64.4,90.3,67.6,74.6,80.3,67.4z"/>
		<path class="st45" d="M80.3,68.1C99.8,57,112,50.9,124.7,51.8c14.1,1,28.3,8.5,46.1,22.1c5.6,4.3,9.4,11.1,9.6,18.8
			c0.1,4,0.1,8.9,0.1,14.2c-0.3,16.4-2.7,32.7-15.6,39.2c-18.9,12.1-31.7,17.2-44.4,16.4c-14.1-1-28.3-8.5-46.1-22.1
			c-5.6-4.3-9.4-11.1-9.6-18.8c-0.1-4-0.1-8.9-0.1-14.2C64.9,90.9,67.8,75.3,80.3,68.1z"/>
		<path class="st46" d="M80.4,68.9c19.5-11.1,31.4-17.4,43.9-16.6c13.9,0.9,27.8,8.2,45.7,21.6c5.6,4.2,9.5,10.9,9.6,18.5
			c0.1,4,0.1,8.8,0.1,14.1c-0.2,16.2-2.3,32.5-15,38.9c-18.9,12.2-31.4,17.3-43.9,16.6c-13.9-0.9-27.8-8.2-45.7-21.6
			c-5.6-4.2-9.5-10.9-9.6-18.5c-0.1-4-0.2-8.8-0.1-14.1C65.4,91.6,68,75.9,80.4,68.9z"/>
		<path class="st47" d="M80.5,69.6C100,58.4,111.7,52.1,124,52.8c13.6,0.8,27.2,8,45.4,21.1c5.6,4.1,9.5,10.7,9.7,18.2
			c0.1,3.9,0.2,8.7,0.2,13.9c0,16-1.9,32.3-14.5,38.6c-18.9,12.2-31.2,17.5-43.5,16.8c-13.6-0.8-27.2-8-45.4-21.1
			c-5.6-4.1-9.5-10.7-9.7-18.2c-0.1-3.9-0.2-8.7-0.2-13.9C65.9,92.2,68.2,76.6,80.5,69.6z"/>
		<path class="st48" d="M80.5,70.3c19.5-11.2,31-17.6,43.1-17c13.3,0.7,26.7,7.7,45,20.6c5.7,4,9.6,10.5,9.8,17.9
			c0.1,3.8,0.2,8.6,0.3,13.8c0.1,15.8-1.5,32.1-13.9,38.3c-18.9,12.3-31,17.6-43.1,17c-13.3-0.7-26.7-7.7-45-20.6
			c-5.7-4-9.6-10.5-9.8-17.9c-0.1-3.8-0.2-8.6-0.3-13.8C66.4,92.9,68.4,77.3,80.5,70.3z"/>
		<path class="st49" d="M80.6,71c19.5-11.2,30.7-17.7,42.6-17.2c13,0.6,26.2,7.5,44.7,20.1c5.7,3.9,9.6,10.3,9.8,17.6
			c0.1,3.8,0.2,8.5,0.3,13.6c0.2,15.6-1.1,31.8-13.4,38c-18.9,12.3-30.7,17.7-42.6,17.2c-13-0.6-26.2-7.5-44.7-20.1
			c-5.7-3.9-9.6-10.3-9.8-17.6c-0.1-3.8-0.2-8.5-0.3-13.6C66.9,93.5,68.6,77.9,80.6,71z"/>
		<path class="st50" d="M80.6,71.8c19.5-11.3,30.5-17.8,42.2-17.4c12.8,0.5,25.7,7.2,44.3,19.7c5.7,3.8,9.7,10.1,9.9,17.3
			c0.1,3.7,0.2,8.4,0.4,13.5c0.4,15.4-0.6,31.6-12.8,37.7c-18.9,12.4-30.5,17.8-42.2,17.4c-12.8-0.5-25.7-7.2-44.3-19.7
			c-5.7-3.8-9.7-10.1-9.9-17.3c-0.1-3.7-0.3-8.4-0.4-13.5C67.4,94.2,68.9,78.6,80.6,71.8z"/>
		<path class="st51" d="M80.7,72.5c19.6-11.3,30.3-18,41.8-17.6c12.5,0.4,25.2,7,44,19.2c5.7,3.7,9.7,9.9,9.9,17
			c0.1,3.7,0.2,8.3,0.5,13.3c0.5,15.2-0.2,31.4-12.2,37.5c-18.9,12.4-30.3,18-41.8,17.6c-12.5-0.4-25.2-7-44-19.2
			c-5.7-3.7-9.7-9.9-9.9-17c-0.1-3.7-0.3-8.3-0.5-13.3C67.9,94.8,69.1,79.2,80.7,72.5z"/>
		<path class="st52" d="M80.8,73.2c19.6-11.4,30-18.1,41.3-17.8c12.2,0.3,24.6,6.8,43.6,18.7c5.7,3.6,9.8,9.7,10,16.7
			c0.1,3.6,0.3,8.2,0.5,13.2c0.6,15,0.2,31.2-11.7,37.2c-18.9,12.5-30,18.1-41.3,17.8c-12.2-0.3-24.6-6.8-43.6-18.7
			c-5.7-3.6-9.8-9.7-10-16.7c-0.1-3.6-0.3-8.2-0.5-13.2C68.4,95.4,69.3,79.9,80.8,73.2z"/>
		<path class="st53" d="M80.8,73.9c19.6-11.4,29.8-18.2,40.9-18c12,0.2,24.1,6.6,43.3,18.2c5.7,3.5,9.8,9.5,10,16.4
			c0.1,3.6,0.3,8.1,0.6,13c0.7,14.8,0.6,31-11.1,36.9c-18.9,12.6-29.8,18.2-40.9,18c-12-0.2-24.1-6.6-43.3-18.2
			c-5.7-3.5-9.8-9.5-10-16.4c-0.1-3.6-0.3-8.1-0.6-13C68.9,96.1,69.5,80.6,80.8,73.9z"/>
		<path class="st54" d="M80.9,74.7c19.6-11.4,29.6-18.3,40.5-18.2c11.7,0.1,23.6,6.3,42.9,17.7c5.7,3.4,9.9,9.3,10.1,16.1
			c0.1,3.5,0.3,8,0.7,12.9c0.9,14.6,1,30.8-10.6,36.6c-18.9,12.6-29.6,18.3-40.5,18.2c-11.7-0.1-23.6-6.3-42.9-17.7
			c-5.7-3.4-9.9-9.3-10.1-16.1c-0.1-3.5-0.3-8-0.7-12.9C69.4,96.7,69.7,81.2,80.9,74.7z"/>
		<path class="st55" d="M80.9,75.4C100.6,63.9,110.3,56.8,121,57c11.4,0.2,23.1,6.1,42.6,17.3c5.7,3.3,9.9,9.1,10.1,15.8
			c0.1,3.4,0.3,7.9,0.7,12.7c1,14.4,1.4,30.5-10,36.3c-18.8,12.7-29.3,18.5-40.1,18.4c-11.4,0-23.1-6.1-42.6-17.3
			c-5.7-3.3-9.9-9.1-10.1-15.8c-0.1-3.4-0.4-7.9-0.7-12.7C69.9,97.4,69.9,81.9,80.9,75.4z"/>
		<path class="st56" d="M81,76.1c19.6-11.5,29.1-18.7,39.6-18.6c11.1,0.1,22.5,5.9,42.2,16.8c5.7,3.2,10,8.9,10.2,15.5
			c0.1,3.4,0.4,7.8,0.8,12.6c1.1,14.1,1.9,30.3-9.5,36c-18.8,12.7-29.1,18.6-39.6,18.6c-11.1,0.1-22.5-5.9-42.2-16.8
			c-5.7-3.2-10-8.9-10.2-15.5c-0.1-3.4-0.4-7.8-0.8-12.6C70.4,98,70.1,82.5,81,76.1z"/>
		<path class="st57" d="M81.1,76.9c19.6-11.5,28.9-18.7,39.2-18.8c10.9-0.2,22,5.7,41.9,16.3c5.8,3.1,10,8.7,10.2,15.2
			c0.1,3.3,0.4,7.6,0.9,12.4c1.2,13.9,2.3,30.1-8.9,35.8c-18.8,12.8-28.9,18.7-39.2,18.8c-10.9,0.2-22-5.7-41.9-16.3
			c-5.8-3.1-10-8.7-10.2-15.2c-0.1-3.3-0.4-7.6-0.9-12.4C70.9,98.7,70.3,83.2,81.1,76.9z"/>
		<path class="st58" d="M81.1,77.6c19.6-11.6,28.6-18.8,38.8-19c10.6-0.2,21.5,5.5,41.5,15.8c5.8,3,10.1,8.5,10.3,14.9
			c0.1,3.3,0.4,7.5,0.9,12.3c1.4,13.7,2.7,29.9-8.3,35.5c-18.8,12.9-28.6,18.8-38.8,19c-10.6,0.2-21.5-5.5-41.5-15.8
			c-5.8-3-10.1-8.5-10.3-14.9c-0.1-3.3-0.4-7.5-0.9-12.3C71.4,99.3,70.5,83.9,81.1,77.6z"/>
		<path class="st59" d="M81.2,78.3c19.7-11.6,28.4-18.9,38.3-19.3c10.3-0.3,21,5.2,41.2,15.3c5.8,2.9,10.1,8.3,10.3,14.6
			c0.1,3.2,0.4,7.4,1,12.1c1.5,13.5,3.1,29.7-7.8,35.2c-18.8,12.9-28.4,18.9-38.3,19.2c-10.3,0.3-21-5.2-41.2-15.3
			c-5.8-2.9-10.1-8.3-10.3-14.6c-0.1-3.2-0.4-7.4-1-12.1C71.8,100,70.7,84.5,81.2,78.3z"/>
		<path class="st60" d="M81.2,79c19.7-11.7,28.2-19.1,37.9-19.5c10-0.4,20.5,5,40.8,14.9c5.8,2.8,10.2,8.1,10.4,14.3
			c0.1,3.1,0.5,7.3,1,12c1.6,13.3,3.5,29.5-7.2,34.9c-18.8,13-28.2,19-37.9,19.5c-10,0.4-20.5-5-40.8-14.9
			c-5.8-2.8-10.2-8.1-10.4-14.3c-0.1-3.1-0.5-7.3-1-12C72.3,100.6,70.9,85.2,81.2,79z"/>
		<path class="st61" d="M81.3,79.8c19.7-11.7,27.9-19.2,37.5-19.7c9.8-0.5,19.9,4.8,40.5,14.4c5.8,2.7,10.2,7.9,10.4,14
			c0.1,3.1,0.5,7.2,1.1,11.8c1.8,13.1,4,29.2-6.7,34.6c-18.8,13-27.9,19.2-37.5,19.7c-9.8,0.5-19.9-4.8-40.5-14.4
			c-5.8-2.7-10.2-7.9-10.4-14c-0.1-3.1-0.5-7.2-1.1-11.8C72.8,101.2,71.1,85.8,81.3,79.8z"/>
		<path class="st62" d="M81.4,80.5c19.7-11.7,27.7-19.3,37-19.9c9.5-0.6,19.4,4.6,40.1,13.9c5.8,2.6,10.3,7.7,10.5,13.7
			c0.1,3,0.5,7.1,1.2,11.7c1.9,12.9,4.4,29-6.1,34.3c-18.8,13.1-27.7,19.3-37,19.9c-9.5,0.6-19.4-4.6-40.1-13.9
			c-5.8-2.6-10.3-7.7-10.5-13.7c-0.1-3-0.5-7.1-1.2-11.7C73.4,101.9,71.3,86.5,81.4,80.5z"/>
		<path class="st63" d="M81.4,81.2c19.7-11.8,27.5-19.4,36.6-20.1c9.2-0.7,18.9,4.4,39.8,13.4c5.8,2.5,10.3,7.5,10.5,13.4
			c0.1,3,0.5,7,1.2,11.5c2,12.7,4.8,28.8-5.6,34c-18.8,13.2-27.5,19.4-36.6,20.1c-9.2,0.7-18.9-4.4-39.8-13.4
			c-5.8-2.5-10.3-7.5-10.5-13.4c-0.1-3-0.5-7-1.2-11.5C73.9,102.5,71.5,87.2,81.4,81.2z"/>
		<path class="st64" d="M164,132.8c-18.8,13.2-27.2,19.5-36.2,20.3s-18.5-4-39.4-12.9c-5.9-2.4-9.9-7.4-10.6-13.1
			c0.4-11.1-10.1-38.1,3.7-45.1c18.8-13.2,27.2-19.5,36.2-20.3s18.5,4,39.4,12.9c5.9,2.4,9.9,7.4,10.6,13.1
			C167.3,98.9,177.8,125.9,164,132.8z"/>
	</g>
</g>
</svg>
